<svg width="1290" height="2796" viewBox="0 0 1290 2796" fill="none" xmlns="http://www.w3.org/2000/svg">
<rect width="1290" height="2796" fill="#101827"/>
<path d="M408.283 1456V1340.36H454.583C463.09 1340.36 470.186 1341.62 475.87 1344.15C481.554 1346.67 485.826 1350.17 488.687 1354.65C491.548 1359.09 492.978 1364.21 492.978 1370.01C492.978 1374.52 492.075 1378.5 490.268 1381.92C488.461 1385.31 485.976 1388.09 482.815 1390.28C479.69 1392.42 476.114 1393.95 472.087 1394.85V1395.98C476.491 1396.17 480.612 1397.41 484.452 1399.71C488.329 1402 491.472 1405.22 493.881 1409.36C496.29 1413.46 497.495 1418.36 497.495 1424.04C497.495 1430.18 495.97 1435.65 492.921 1440.47C489.91 1445.25 485.45 1449.04 479.54 1451.82C473.63 1454.61 466.346 1456 457.688 1456H408.283ZM432.732 1436.01H452.663C459.476 1436.01 464.445 1434.71 467.57 1432.12C470.694 1429.48 472.256 1425.98 472.256 1421.61C472.256 1418.41 471.484 1415.59 469.941 1413.14C468.398 1410.7 466.196 1408.78 463.335 1407.39C460.512 1405.99 457.143 1405.3 453.228 1405.3H432.732V1436.01ZM432.732 1388.75H450.856C454.207 1388.75 457.18 1388.17 459.778 1387C462.413 1385.8 464.483 1384.1 465.989 1381.92C467.532 1379.74 468.304 1377.12 468.304 1374.07C468.304 1369.89 466.817 1366.52 463.843 1363.97C460.907 1361.41 456.729 1360.13 451.308 1360.13H432.732V1388.75ZM512.952 1456V1369.27H537.005V1456H512.952ZM525.035 1358.09C521.459 1358.09 518.391 1356.91 515.831 1354.54C513.309 1352.13 512.048 1349.25 512.048 1345.9C512.048 1342.58 513.309 1339.74 515.831 1337.37C518.391 1334.96 521.459 1333.76 525.035 1333.76C528.611 1333.76 531.66 1334.96 534.182 1337.37C536.741 1339.74 538.021 1342.58 538.021 1345.9C538.021 1349.25 536.741 1352.13 534.182 1354.54C531.66 1356.91 528.611 1358.09 525.035 1358.09ZM556.273 1456V1369.27H579.592V1384.4H580.496C582.077 1379.02 584.73 1374.96 588.457 1372.21C592.184 1369.42 596.475 1368.03 601.331 1368.03C602.535 1368.03 603.834 1368.11 605.226 1368.26C606.619 1368.41 607.843 1368.61 608.897 1368.88V1390.22C607.767 1389.88 606.205 1389.58 604.21 1389.32C602.215 1389.05 600.389 1388.92 598.733 1388.92C595.195 1388.92 592.033 1389.69 589.247 1391.24C586.5 1392.74 584.316 1394.85 582.698 1397.56C581.117 1400.27 580.326 1403.4 580.326 1406.93V1456H556.273ZM659.078 1340.36H683.244V1420.99C683.244 1428.45 681.569 1434.92 678.219 1440.42C674.907 1445.91 670.295 1450.15 664.386 1453.12C658.476 1456.09 651.606 1457.58 643.777 1457.58C636.813 1457.58 630.489 1456.36 624.805 1453.91C619.159 1451.43 614.679 1447.66 611.367 1442.62C608.054 1437.54 606.417 1431.16 606.455 1423.48H630.79C630.865 1426.53 631.487 1429.14 632.653 1431.33C633.858 1433.47 635.495 1435.13 637.566 1436.29C639.674 1437.42 642.158 1437.99 645.019 1437.99C648.03 1437.99 650.571 1437.35 652.641 1436.07C654.749 1434.75 656.349 1432.83 657.441 1430.31C658.532 1427.79 659.078 1424.68 659.078 1420.99V1340.36ZM742.192 1457.69C733.421 1457.69 725.836 1455.83 719.437 1452.1C713.076 1448.34 708.163 1443.11 704.7 1436.41C701.237 1429.67 699.506 1421.86 699.506 1412.98C699.506 1404.02 701.237 1396.19 704.7 1389.49C708.163 1382.75 713.076 1377.52 719.437 1373.79C725.836 1370.03 733.421 1368.14 742.192 1368.14C750.962 1368.14 758.528 1370.03 764.89 1373.79C771.289 1377.52 776.22 1382.75 779.683 1389.49C783.146 1396.19 784.878 1404.02 784.878 1412.98C784.878 1421.86 783.146 1429.67 779.683 1436.41C776.22 1443.11 771.289 1448.34 764.89 1452.1C758.528 1455.83 750.962 1457.69 742.192 1457.69ZM742.305 1439.06C746.295 1439.06 749.626 1437.93 752.299 1435.67C754.971 1433.38 756.985 1430.25 758.34 1426.3C759.733 1422.35 760.429 1417.85 760.429 1412.81C760.429 1407.76 759.733 1403.26 758.34 1399.31C756.985 1395.36 754.971 1392.23 752.299 1389.94C749.626 1387.64 746.295 1386.49 742.305 1386.49C738.277 1386.49 734.889 1387.64 732.141 1389.94C729.431 1392.23 727.38 1395.36 725.987 1399.31C724.632 1403.26 723.954 1407.76 723.954 1412.81C723.954 1417.85 724.632 1422.35 725.987 1426.3C727.38 1430.25 729.431 1433.38 732.141 1435.67C734.889 1437.93 738.277 1439.06 742.305 1439.06ZM800.97 1456V1340.36H825.023V1383.84H825.757C826.811 1381.51 828.336 1379.13 830.331 1376.73C832.363 1374.28 834.998 1372.25 838.235 1370.63C841.51 1368.97 845.576 1368.14 850.431 1368.14C856.755 1368.14 862.59 1369.8 867.935 1373.11C873.28 1376.39 877.553 1381.34 880.752 1387.96C883.952 1394.55 885.552 1402.81 885.552 1412.75C885.552 1422.42 883.989 1430.59 880.865 1437.25C877.778 1443.88 873.563 1448.9 868.217 1452.33C862.91 1455.72 856.962 1457.41 850.375 1457.41C845.707 1457.41 841.736 1456.64 838.461 1455.1C835.224 1453.55 832.57 1451.61 830.5 1449.28C828.43 1446.91 826.849 1444.52 825.757 1442.11H824.684V1456H800.97ZM824.515 1412.64C824.515 1417.79 825.23 1422.29 826.661 1426.13C828.091 1429.97 830.161 1432.96 832.871 1435.11C835.582 1437.22 838.875 1438.27 842.753 1438.27C846.667 1438.27 849.98 1437.2 852.69 1435.05C855.4 1432.87 857.452 1429.86 858.844 1426.02C860.275 1422.14 860.99 1417.68 860.99 1412.64C860.99 1407.63 860.294 1403.23 858.901 1399.42C857.508 1395.62 855.457 1392.65 852.746 1390.5C850.036 1388.36 846.705 1387.28 842.753 1387.28C838.838 1387.28 835.525 1388.32 832.815 1390.39C830.142 1392.46 828.091 1395.4 826.661 1399.2C825.23 1403 824.515 1407.48 824.515 1412.64Z" fill="#60A5FA"/>
</svg>
